<svg width="129.310009765625px" height="129.22501220703123px" xmlns="http://www.w3.org/2000/svg" viewBox="185.3449951171875 10.387493896484386 129.310009765625 129.22501220703123" style="background: rgba(0, 0, 0, 0);" preserveAspectRatio="xMidYMid"><defs><filter id="editing-hole" x="-100%" y="-100%" width="300%" height="300%"><feFlood flood-color="#000000" result="black"></feFlood><feMorphology operator="dilate" radius="2" in="SourceGraphic" result="erode"></feMorphology><feGaussianBlur in="erode" stdDeviation="4" result="blur"></feGaussianBlur><feOffset in="blur" dx="2" dy="2" result="offset"></feOffset><feComposite operator="atop" in="offset" in2="black" result="merge"></feComposite><feComposite operator="in" in="merge" in2="SourceGraphic" result="inner-shadow"></feComposite></filter></defs><g filter="url(#editing-hole)"><g transform="translate(210.30710238218307, 99.35000038146973)"><path d="M32.64-3.20L27.90-15.36L13.06-15.36L8.90-3.20L13.82-1.92L13.82-1.92Q14.02-0.70 13.50 0.32L13.50 0.32L13.50 0.32Q7.74 0 5.70 0L5.70 0L5.70 0Q4.61 0 3.58 0.06L3.58 0.06L3.58 0.06Q2.56 0.13 1.60 0.19L1.60 0.19L1.60 0.19Q0.64 0.26-0.19 0.32L-0.19 0.32L-0.19 0.32Q-0.38-0.90-0.06-1.92L-0.06-1.92L-0.06-1.92Q2.82-2.30 4.86-3.20L4.86-3.20L20.03-46.02L20.03-46.02Q20.99-46.53 22.53-46.53L22.53-46.53L39.87-3.20L44.80-1.92L44.80-1.92Q44.99-0.70 44.48 0.32L44.48 0.32L44.48 0.32Q38.72 0 36.67 0L36.67 0L36.67 0Q33.34 0 27.39 0.32L27.39 0.32L27.39 0.32Q27.20-0.90 27.52-1.92L27.52-1.92L27.52-1.92Q30.53-2.30 32.64-3.20L32.64-3.20ZM20.16-37.12L20.16-37.12L20.03-37.12L20.03-37.12Q18.05-30.02 17.22-27.65L17.22-27.65L14.21-18.88L26.50-18.88L22.98-27.97L22.98-27.97Q20.93-32.70 20.16-37.12ZM55.94-47.68L55.94-47.68L55.94-3.20L60.86-1.92L60.86-1.92Q61.06-0.70 60.54 0.32L60.54 0.32L60.54 0.32Q54.78 0 52.74 0L52.74 0L52.74 0Q50.88 0 44.93 0.32L44.93 0.32L44.93 0.32Q44.74-0.90 45.06-1.92L45.06-1.92L45.06-1.92Q48.64-2.82 49.54-3.20L49.54-3.20L49.54-43.90L44.22-44.42L44.22-44.42Q44.03-45.70 44.54-46.66L44.54-46.66L44.54-46.66Q49.86-47.42 53.50-48.38L53.50-48.38L53.50-48.38Q54.59-48.32 55.94-47.68ZM73.79-47.68L73.79-47.68L73.79-3.20L78.72-1.92L78.72-1.92Q78.91-0.70 78.40 0.32L78.40 0.32L78.40 0.32Q72.64 0 70.59 0L70.59 0L70.59 0Q68.74 0 62.78 0.32L62.78 0.32L62.78 0.32Q62.59-0.90 62.91-1.92L62.91-1.92L62.91-1.92Q66.50-2.82 67.39-3.20L67.39-3.20L67.39-43.90L62.08-44.42L62.08-44.42Q61.89-45.70 62.40-46.66L62.40-46.66L62.40-46.66Q67.71-47.42 71.36-48.38L71.36-48.38L71.36-48.38Q72.45-48.32 73.79-47.68Z" fill="#000000"></path></g></g><style>text {
  font-size: 64px;
  font-family: Arial Black;
  dominant-baseline: central;
  text-anchor: middle;
}</style></svg>