<svg class="svg-icon" style="width: 1em; height: 1em;vertical-align: middle;fill: currentColor;overflow: hidden;" viewBox="0 0 1024 1024" version="1.1" xmlns="http://www.w3.org/2000/svg"><path d="M104.96154 371.646392c-15.500019 0-28.070312-12.570293-28.070312-28.070313V183.175903c0-61.585637 50.123584-106.281605 119.180379-106.281605h161.536047c15.500019 0 28.070312 12.56927 28.070312 28.074405 0 15.500019-12.56927 28.069289-28.070312 28.069289H196.071607c-29.087479 0-63.036685 13.131065-63.036685 50.137911v160.400176c0 15.498996-12.56927 28.070312-28.073382 28.070313zM357.608677 947.106726H196.071607c-65.708538 0-119.18038-53.457516-119.180379-119.181403V666.389276c0-15.485693 12.56927-28.070312 28.070312-28.070312 15.504112 0 28.074406 12.58462 28.074406 28.070312v161.536047c0 34.168194 28.864398 63.036685 63.036685 63.036685H357.608677c15.500019 0 28.070312 12.58462 28.070313 28.075429-0.001023 15.514345-12.570293 28.069289-28.070313 28.069289zM840.841493 947.106726H666.396439c-15.506159 0-28.070312-12.554944-28.070312-28.068266 0-15.490809 12.565177-28.075429 28.070312-28.075429h174.445054c36.997636 0 50.127677-33.948183 50.127678-63.022359V666.389276c0-15.485693 12.565177-28.070312 28.070312-28.070312 15.504112 0 28.068266 12.58462 28.068266 28.070312v161.54628c0.001023 69.056795-44.695968 119.17117-106.266256 119.17117zM919.040507 371.646392c-15.506159 0-28.070312-12.570293-28.070313-28.070313V183.175903c0-34.205033-15.928784-50.13791-50.127677-50.137911H666.397463c-15.506159 0-28.070312-12.56927-28.070313-28.069289 0-15.504112 12.565177-28.074406 28.070313-28.074405h174.445054c65.547879 0 106.267279 40.72554 106.267279 106.281605v160.400176c-0.001023 15.498996-12.5662 28.070312-28.069289 28.070313zM778.679735 526.039761H90.924849c-7.757684 0-14.034645-6.287193-14.034645-14.034644 0-7.751544 6.277984-14.034645 14.034645-14.034645h687.754886c7.757684 0 14.035668 6.282077 14.035668 14.034645 0.001023 7.746428-6.277984 14.034645-14.035668 14.034644zM933.074128 526.039761h-98.248652c-7.757684 0-14.035668-6.287193-14.035667-14.034644 0-7.751544 6.279007-14.034645 14.035667-14.034645h98.248652c7.757684 0 14.034645 6.282077 14.034644 14.034645 0 7.746428-6.272867 14.034645-14.034644 14.034644z" fill="" /></svg>