<svg class="svg-icon" style="width: 1em; height: 1em;vertical-align: middle;fill: currentColor;overflow: hidden;" viewBox="0 0 1024 1024" version="1.1" xmlns="http://www.w3.org/2000/svg"><path d="M820.927288 974.727801 668.145891 974.727801 668.145891 926.820392 799.752954 926.820392C869.914048 926.820392 926.790817 869.958546 926.790817 799.814546L926.790817 650.927822 974.581825 650.927822 974.581825 821.114506C974.581825 905.950762 905.786879 974.727801 820.927288 974.727801ZM926.790817 217.289598C926.790817 147.143428 869.914048 90.28538 799.752954 90.28538L668.145891 90.28538 668.145891 40.137056 820.927288 40.137056C905.786879 40.137056 974.581825 108.910296 974.581825 193.746552L974.581825 332.659994 926.790817 332.659994 926.790817 217.289598ZM96.590821 217.289598 96.590821 332.659994 46.551029 332.659994 46.551029 193.746552C46.551029 108.910296 115.343805 40.137056 200.205567 40.137056L349.795307 40.137056 349.795307 90.28538 223.626243 90.28538C153.46732 90.28538 96.590821 147.143428 96.590821 217.289598ZM104.209229 479.82974 920.815856 479.82974 920.815856 525.186917 104.209229 525.186917 104.209229 479.82974ZM96.590821 799.814546C96.590821 869.958546 153.46732 926.820392 223.626243 926.820392L349.795307 926.820392 349.795307 974.727801 200.205567 974.727801C115.343805 974.727801 46.551029 905.950762 46.551029 821.114506L46.551029 650.927822 96.590821 650.927822 96.590821 799.814546Z"  /></svg>